<?xml version="1.0" standalone="no"?>
<!DOCTYPE svg PUBLIC "-//W3C//DTD SVG 20010904//EN"
 "http://www.w3.org/TR/2001/REC-SVG-20010904/DTD/svg10.dtd">
<svg version="1.0" xmlns="http://www.w3.org/2000/svg"
 width="2000.000000pt" height="1000.000000pt" viewBox="0 0 2000.000000 1000.000000"
 preserveAspectRatio="xMidYMid meet">
<metadata>
Created by potrace 1.15, written by Peter Selinger 2001-2017
</metadata>
<g transform="translate(0.000000,1000.000000) scale(0.100000,-0.100000)"
fill="#000000" stroke="none">
<path d="M10466 9957 c-41 -70 -32 -117 50 -244 43 -67 129 -224 147 -268 7
-16 30 -66 52 -110 48 -97 84 -125 157 -125 55 0 91 16 128 55 21 23 24 35 24
98 -1 68 -5 79 -73 217 -83 168 -152 294 -202 365 l-36 50 -111 3 -111 3 -25
-44z"/>
<path d="M13340 9993 c0 -23 85 -115 146 -159 114 -81 258 -104 417 -65 115
29 187 93 187 168 0 67 26 63 -381 63 -203 0 -369 -3 -369 -7z"/>
<path d="M15857 9982 c-10 -10 -17 -22 -17 -26 0 -5 -13 -25 -30 -46 -16 -21
-30 -41 -30 -46 0 -4 -17 -30 -38 -58 -34 -45 -67 -96 -97 -148 -5 -10 -22
-34 -36 -55 -125 -183 -132 -212 -73 -283 66 -78 201 -80 269 -3 13 15 25 33
25 39 0 6 7 17 15 24 15 12 95 128 95 137 0 3 14 22 30 43 17 21 30 41 30 46
0 4 18 31 40 60 22 29 40 56 40 60 0 4 6 15 14 23 63 71 86 175 49 225 -18 25
-21 25 -144 26 -110 0 -128 -2 -142 -18z"/>
<path d="M17719 9973 c-40 -101 -46 -229 -15 -326 25 -78 82 -169 141 -224 71
-67 203 -133 266 -133 92 0 158 68 159 165 0 81 -45 133 -142 164 -51 17 -105
81 -113 136 -10 61 2 104 42 152 37 47 101 73 177 73 23 0 48 5 56 10 10 6
-83 10 -273 10 l-287 0 -11 -27z"/>
<path d="M9504 9931 c-63 -29 -89 -72 -89 -152 0 -60 3 -69 32 -102 31 -36 48
-87 41 -124 -2 -14 -14 -19 -51 -21 -52 -3 -121 17 -229 67 -112 52 -172 70
-243 77 -61 6 -81 3 -154 -22 -70 -24 -93 -37 -147 -88 -50 -48 -70 -76 -93
-131 -26 -62 -30 -80 -27 -155 3 -100 27 -171 83 -244 56 -73 85 -91 146 -91
88 0 157 70 157 158 0 57 -10 84 -45 121 -22 24 -26 35 -21 65 3 20 16 44 28
54 30 25 101 16 179 -23 109 -56 268 -108 348 -114 102 -9 234 38 297 106 17
18 44 60 60 93 55 115 40 278 -38 409 -77 128 -140 159 -234 117z"/>
<path d="M7894 9871 c-52 -32 -74 -68 -74 -123 0 -69 24 -113 77 -145 78 -45
166 -23 221 58 20 29 23 42 17 84 -8 67 -23 95 -64 122 -44 30 -132 32 -177 4z"/>
<path d="M5814 9830 c-40 -9 -86 -44 -109 -82 -28 -48 -24 -98 25 -268 12 -41
34 -129 50 -195 63 -270 82 -309 159 -326 79 -18 154 18 191 92 18 34 19 46
10 101 -12 71 -39 186 -71 298 -11 41 -31 122 -45 180 -28 123 -45 164 -76
183 -29 18 -94 27 -134 17z"/>
<path d="M998 9738 c-97 -56 -90 -208 12 -261 40 -21 117 -19 165 4 61 29 86
149 46 215 -38 63 -150 84 -223 42z"/>
<path d="M14501 9549 c-78 -23 -111 -67 -111 -146 0 -58 26 -105 72 -130 46
-24 134 -23 178 3 64 37 88 127 54 200 -28 58 -123 94 -193 73z"/>
<path d="M12428 9471 c-132 -26 -173 -178 -73 -271 24 -23 34 -25 116 -24 73
0 94 4 117 20 37 28 62 81 62 134 0 108 -91 166 -222 141z"/>
<path d="M16870 9461 c-101 -54 -124 -157 -54 -239 62 -73 176 -78 246 -11 17
16 28 29 24 29 -3 0 0 10 7 23 36 57 -8 158 -85 196 -54 26 -92 26 -138 2z"/>
<path d="M19135 9152 c-89 -16 -148 -96 -139 -183 3 -24 12 -54 19 -65 11 -17
128 -100 275 -194 25 -16 142 -94 199 -133 30 -21 71 -51 91 -67 21 -17 43
-30 49 -30 6 0 11 -4 11 -8 0 -4 25 -20 55 -36 62 -31 92 -30 158 7 97 54 107
189 20 256 -115 88 -548 381 -563 381 -6 0 -10 3 -10 8 0 9 -77 50 -115 60
-16 5 -39 7 -50 4z"/>
<path d="M7135 9109 c-66 -21 -115 -89 -115 -160 0 -41 5 -53 45 -97 25 -28
67 -63 93 -78 26 -15 67 -43 92 -61 183 -137 275 -210 339 -268 86 -78 129
-99 179 -90 98 18 147 74 147 168 l0 59 -60 57 c-82 76 -290 243 -400 319
-231 161 -255 172 -320 151z"/>
<path d="M90 9074 c-8 -3 -32 -12 -52 -21 l-38 -16 0 -227 c0 -212 2 -236 30
-376 35 -174 44 -198 79 -223 57 -40 132 -34 191 15 66 56 72 102 40 279 -64
343 -94 483 -107 508 -21 42 -99 75 -143 61z"/>
<path d="M2194 8991 c-38 -9 -90 -45 -104 -71 -6 -10 -10 -48 -10 -84 0 -54 4
-69 25 -94 55 -66 163 -78 225 -25 43 35 60 74 60 132 0 39 -6 56 -26 81 -44
52 -110 75 -170 61z"/>
<path d="M3760 8928 c-24 -13 -53 -35 -64 -51 -26 -36 -33 -141 -12 -177 48
-78 58 -111 45 -142 -12 -29 -15 -30 -61 -26 -35 4 -97 29 -213 86 -191 94
-230 106 -326 100 -126 -9 -254 -93 -325 -213 -28 -48 -29 -55 -29 -175 0
-121 1 -127 32 -185 45 -87 110 -146 165 -152 37 -4 50 0 92 29 82 55 98 140
45 238 -38 69 -35 101 13 126 28 14 39 15 83 4 27 -7 84 -31 125 -55 167 -95
317 -136 423 -115 191 37 287 156 287 355 -1 165 -73 322 -167 361 -44 19 -62
18 -113 -8z"/>
<path d="M11435 8775 c-22 -8 -57 -32 -77 -54 -34 -36 -38 -46 -38 -93 0 -28
13 -120 29 -202 16 -83 41 -218 57 -301 26 -144 29 -152 64 -187 48 -49 92
-57 158 -28 27 12 61 33 74 47 21 23 23 32 21 131 -1 86 -13 160 -56 370 -60
288 -66 302 -136 322 -45 12 -47 12 -96 -5z"/>
<path d="M13557 8696 c-70 -25 -107 -76 -107 -146 0 -117 119 -191 224 -140
60 29 86 72 86 142 0 48 -4 59 -35 95 -25 29 -47 44 -79 52 -53 13 -42 13 -89
-3z"/>
<path d="M18106 8665 c-60 -41 -74 -58 -83 -105 -22 -108 77 -204 191 -186 89
15 133 81 125 191 -4 54 -99 125 -166 125 -17 0 -47 -11 -67 -25z"/>
<path d="M15159 8650 c-46 -13 -78 -41 -99 -84 -29 -62 -26 -108 16 -192 30
-61 34 -78 27 -101 -9 -26 -14 -28 -61 -28 -43 1 -75 13 -219 85 l-168 85
-108 3 c-125 4 -157 -5 -253 -73 -111 -80 -159 -183 -151 -325 6 -113 36 -189
102 -257 79 -81 145 -84 220 -8 68 67 73 143 15 219 -17 22 -30 50 -30 62 0
26 34 62 67 70 30 8 132 -29 213 -76 36 -21 106 -53 156 -71 73 -26 104 -32
174 -32 117 0 187 27 258 100 70 71 94 127 100 228 6 107 -16 189 -75 288 -37
61 -56 81 -88 97 -44 21 -56 23 -96 10z"/>
<path d="M4964 8485 c-62 -18 -92 -43 -110 -91 -26 -70 -15 -120 40 -171 42
-40 48 -43 103 -43 72 0 114 24 143 79 35 70 25 134 -30 188 -41 40 -93 54
-146 38z"/>
<path d="M17125 8326 c-39 -17 -73 -55 -83 -92 -5 -16 -7 -60 -6 -99 3 -93 14
-290 19 -340 3 -22 7 -60 9 -85 7 -71 24 -200 31 -245 1 -5 3 -22 3 -36 2 -28
41 -77 84 -103 39 -25 119 -23 162 4 58 35 78 78 75 162 -1 39 -6 92 -10 115
-22 115 -38 298 -43 493 -4 129 -12 166 -44 201 -36 38 -138 51 -197 25z"/>
<path d="M1314 8245 c-58 -29 -87 -71 -88 -129 -1 -71 26 -106 152 -204 121
-93 373 -318 431 -384 51 -59 144 -72 209 -30 38 25 72 93 72 145 0 42 -5 52
-52 105 -122 135 -511 468 -594 507 -45 21 -72 19 -130 -10z"/>
<path d="M8744 8101 c-85 -14 -134 -72 -134 -156 1 -63 16 -90 70 -126 70 -47
153 -36 215 30 27 29 30 38 29 96 -1 72 -16 102 -66 133 -44 26 -65 31 -114
23z"/>
<path d="M5789 8071 c-90 -38 -129 -63 -180 -118 -53 -57 -114 -179 -124 -248
-4 -28 -12 -60 -16 -73 -5 -13 -11 -37 -14 -55 -8 -42 -41 -94 -64 -100 -35
-9 -93 21 -156 82 -63 60 -64 61 -121 61 -67 0 -106 -21 -143 -77 -52 -80 -31
-146 76 -243 92 -82 167 -119 274 -135 118 -18 198 -1 277 57 93 69 123 122
158 278 48 214 95 280 199 280 59 0 94 -25 120 -85 45 -100 122 -134 214 -95
68 30 101 76 101 141 0 58 -53 164 -112 226 -119 123 -334 169 -489 104z"/>
<path d="M12713 7969 c-50 -15 -109 -77 -117 -123 -10 -53 31 -138 83 -171 21
-12 60 -42 87 -64 27 -23 78 -65 113 -94 83 -68 190 -164 221 -198 14 -15 53
-52 87 -83 58 -51 67 -56 110 -56 91 0 163 75 163 169 0 42 -5 56 -36 93 -86
103 -416 392 -567 496 -54 37 -96 46 -144 31z"/>
<path d="M10015 7768 c-37 -14 -80 -48 -114 -93 -14 -18 -100 -122 -191 -230
-91 -107 -173 -210 -183 -228 -14 -27 -15 -43 -8 -80 16 -87 85 -147 170 -147
53 0 85 29 228 203 60 72 126 151 148 176 132 150 155 185 155 241 0 54 -21
89 -77 130 -48 35 -86 44 -128 28z"/>
<path d="M18724 7720 c-35 -14 -88 -85 -109 -146 -14 -43 -20 -84 -19 -149 0
-85 3 -95 42 -176 45 -94 97 -152 177 -203 103 -65 165 -79 293 -67 85 8 98
12 244 86 122 62 160 77 181 71 39 -9 61 -58 59 -131 -2 -114 6 -143 49 -185
67 -64 172 -67 233 -5 39 39 48 76 47 193 -1 132 -25 205 -101 307 -70 94
-142 134 -261 142 -96 7 -179 -18 -292 -87 -43 -26 -107 -56 -142 -65 -61 -17
-67 -17 -110 -1 -82 32 -115 117 -76 194 36 71 22 137 -41 193 -40 37 -122 50
-174 29z"/>
<path d="M7307 7713 c-72 -11 -141 -127 -117 -196 41 -122 190 -155 280 -62
28 29 34 44 38 90 4 47 1 61 -22 95 -38 57 -104 84 -179 73z"/>
<path d="M16075 7676 c-54 -25 -87 -70 -93 -124 -12 -125 115 -216 230 -164
38 17 92 62 74 62 -3 0 0 10 8 23 18 28 15 97 -7 130 -46 71 -144 105 -212 73z"/>
<path d="M0 7166 c0 -162 1 -166 19 -156 33 17 92 12 127 -12 19 -13 43 -46
60 -82 35 -74 77 -106 141 -106 94 0 163 57 171 140 10 106 -102 267 -237 339
-58 31 -73 34 -172 39 l-109 5 0 -167z"/>
<path d="M8180 7200 c-25 -4 -82 -24 -126 -44 -65 -30 -85 -45 -107 -79 -45
-69 -29 -157 39 -211 53 -42 106 -45 182 -11 52 23 71 27 127 23 77 -5 110
-25 143 -89 38 -73 28 -124 -45 -240 -116 -182 -130 -304 -53 -464 51 -108
137 -183 250 -219 114 -38 189 -42 289 -17 93 23 150 53 196 100 25 27 29 39
30 89 0 50 -4 63 -32 99 -37 46 -86 73 -132 73 -18 0 -59 -14 -92 -31 -54 -28
-65 -31 -116 -24 -80 10 -113 44 -113 115 0 47 5 60 48 119 62 87 71 104 93
181 67 229 -43 475 -259 580 -117 57 -202 70 -322 50z"/>
<path d="M2817 7129 c-94 -50 -90 -216 7 -260 83 -38 188 -12 219 54 21 43 22
106 3 152 -29 69 -148 97 -229 54z"/>
<path d="M11304 7025 c-79 -19 -190 -101 -241 -177 -42 -62 -59 -104 -102
-244 -31 -103 -57 -138 -105 -142 -37 -3 -43 1 -117 77 l-77 81 -60 0 c-68 0
-111 -23 -149 -79 -35 -51 -30 -97 15 -167 61 -94 165 -173 269 -206 88 -27
180 -29 263 -3 53 16 76 30 121 75 69 68 82 93 121 228 16 59 42 129 57 156
34 64 91 106 143 106 71 0 119 -37 138 -108 16 -61 74 -102 144 -102 52 1 72
9 118 45 63 51 65 120 6 235 -59 116 -154 195 -270 226 -64 17 -204 16 -274
-1z"/>
<path d="M1420 6851 c-63 -20 -88 -41 -105 -86 -21 -52 -16 -100 14 -149 26
-41 108 -71 165 -60 46 8 97 42 113 74 15 30 17 109 3 144 -20 53 -128 97
-190 77z"/>
<path d="M14188 6839 c-97 -58 -89 -210 12 -261 69 -35 169 -14 208 42 24 36
30 117 13 163 -26 69 -158 100 -233 56z"/>
<path d="M4095 6724 c-30 -16 -344 -340 -442 -456 -49 -57 -53 -66 -53 -113 0
-123 136 -206 236 -144 18 11 50 40 71 63 21 24 122 131 226 239 l187 197 0
69 c0 61 -3 73 -27 102 -48 57 -135 76 -198 43z"/>
<path d="M6965 6674 c-89 -27 -178 -51 -270 -74 -253 -62 -267 -66 -395 -91
-30 -6 -64 -18 -75 -25 -32 -21 -65 -87 -65 -130 0 -52 35 -119 74 -144 38
-23 119 -27 176 -9 19 6 62 17 95 24 209 48 321 76 405 100 52 15 123 34 157
42 50 12 69 23 98 54 30 33 35 46 35 87 0 61 -25 110 -75 144 -50 35 -95 41
-160 22z"/>
<path d="M17890 6624 c-46 -17 -66 -34 -111 -96 -27 -37 -49 -70 -49 -74 0 -3
-14 -24 -31 -45 -17 -21 -28 -39 -24 -39 3 0 -14 -27 -39 -59 -25 -33 -46 -63
-46 -67 0 -4 -11 -22 -25 -40 -14 -18 -25 -36 -25 -39 0 -4 -13 -24 -28 -44
-56 -73 -74 -133 -54 -181 40 -97 172 -129 265 -63 23 16 46 38 52 49 5 11 19
33 30 49 11 17 25 38 30 47 9 16 29 45 93 138 15 22 32 48 37 58 6 9 41 63 79
120 55 82 69 111 69 141 0 79 -64 139 -155 146 -29 3 -60 2 -68 -1z"/>
<path d="M4633 6582 c-51 -38 -68 -83 -58 -158 5 -45 12 -58 42 -83 19 -16 55
-34 78 -41 40 -11 48 -10 101 16 73 37 97 77 91 152 -3 47 -9 59 -45 95 -38
38 -46 41 -104 45 -57 3 -67 1 -105 -26z"/>
<path d="M12775 6555 c-22 -8 -52 -28 -67 -45 -24 -26 -28 -39 -28 -95 0 -57
3 -68 30 -99 82 -93 254 -56 280 60 19 85 -26 161 -110 184 -45 13 -57 12
-105 -5z"/>
<path d="M15475 6435 c-29 -16 -60 -46 -300 -296 -208 -216 -195 -198 -195
-279 0 -66 2 -71 36 -105 20 -20 47 -40 61 -46 36 -13 90 -11 121 5 15 8 95
85 177 172 83 86 185 194 228 238 43 45 83 91 88 104 14 35 11 99 -6 132 -37
72 -144 110 -210 75z"/>
<path d="M19075 6379 c-50 -47 -65 -85 -54 -144 8 -46 64 -102 122 -123 104
-38 223 75 195 185 -11 44 -21 58 -66 96 -28 23 -43 27 -93 27 -56 0 -62 -3
-104 -41z"/>
<path d="M16366 6325 c-44 -16 -81 -56 -91 -100 -4 -16 -9 -35 -10 -42 -5 -19
19 -80 41 -104 27 -30 88 -59 124 -59 69 0 140 54 158 122 19 71 -34 165 -106
186 -49 15 -67 15 -116 -3z"/>
<path d="M2253 6289 c-103 -18 -209 -68 -238 -113 -58 -88 9 -221 122 -242 26
-5 52 0 99 20 78 32 124 33 182 5 47 -23 76 -61 93 -122 15 -58 -10 -132 -72
-209 -57 -71 -96 -148 -105 -210 -4 -23 -13 -53 -21 -67 -7 -14 -13 -43 -13
-64 0 -42 24 -107 39 -107 6 0 22 -21 35 -47 71 -141 247 -243 416 -243 106 0
272 63 307 117 27 40 28 97 3 148 -38 79 -118 111 -200 82 -108 -38 -189 -30
-234 24 -49 57 -33 114 61 224 19 22 49 69 66 105 31 63 32 67 32 205 0 141 0
141 -35 211 -22 44 -59 93 -100 135 -114 116 -287 175 -437 148z"/>
<path d="M13620 5999 c-73 -12 -205 -75 -227 -108 -24 -36 -24 -137 0 -174 43
-67 124 -90 201 -58 68 28 168 29 213 1 39 -23 62 -57 74 -107 16 -69 2 -116
-62 -205 -33 -45 -71 -105 -84 -133 -101 -205 -4 -463 209 -561 158 -72 294
-72 439 0 101 51 130 120 88 213 -23 49 -90 93 -142 93 -19 0 -54 -9 -78 -20
-51 -23 -130 -26 -169 -6 -49 25 -64 50 -64 106 1 53 14 80 78 152 19 21 45
60 59 87 150 296 -26 645 -361 716 -77 16 -95 17 -174 4z"/>
<path d="M5565 5906 c-37 -17 -80 -62 -94 -99 -17 -45 5 -112 63 -189 73 -97
158 -236 234 -381 59 -112 86 -131 178 -125 59 4 68 7 101 40 32 33 37 44 41
97 4 56 1 67 -38 143 -104 201 -266 447 -328 498 -29 24 -46 30 -82 30 -25 -1
-58 -7 -75 -14z"/>
<path d="M970 5834 c-161 -33 -504 -95 -594 -108 -94 -13 -102 -15 -132 -49
-37 -40 -58 -103 -48 -144 16 -69 87 -123 160 -123 100 0 737 118 812 151 71
30 93 120 51 206 -38 78 -106 97 -249 67z"/>
<path d="M9512 5674 c-114 -68 -90 -240 39 -278 60 -18 89 -13 145 25 64 44
84 137 41 200 -54 81 -143 102 -225 53z"/>
<path d="M12325 5540 c-154 -32 -414 -79 -550 -100 -123 -19 -132 -23 -161
-54 -37 -39 -51 -104 -35 -164 16 -59 78 -102 148 -102 96 -1 744 118 819 150
102 44 97 202 -8 264 -53 31 -86 32 -213 6z"/>
<path d="M7505 5483 c-34 -9 -88 -57 -101 -90 -31 -72 0 -164 65 -198 44 -22
136 -20 177 5 36 23 74 91 74 135 0 39 -45 112 -80 130 -33 17 -104 27 -135
18z"/>
<path d="M18551 5412 c-42 -21 -71 -73 -71 -125 0 -119 124 -191 235 -137 59
28 85 70 85 133 0 97 -53 147 -155 147 -37 0 -73 -7 -94 -18z"/>
<path d="M15985 5216 c-94 -43 -133 -176 -71 -246 25 -29 87 -77 113 -88 10
-4 78 -48 152 -97 73 -50 140 -94 149 -100 9 -5 48 -33 87 -61 109 -79 188
-131 212 -138 29 -9 86 7 128 36 48 32 69 73 67 131 -1 61 -31 103 -118 164
-57 40 -388 267 -422 289 -149 97 -182 114 -222 119 -28 3 -56 0 -75 -9z"/>
<path d="M10925 4867 c-49 -28 -85 -80 -85 -124 0 -32 34 -111 70 -163 9 -14
33 -54 52 -90 20 -36 49 -90 66 -120 17 -30 49 -98 72 -150 23 -52 53 -106 66
-120 22 -23 32 -25 108 -25 76 0 87 3 110 24 33 31 50 92 41 150 -9 60 -145
338 -248 507 -78 129 -158 164 -252 111z"/>
<path d="M1426 4734 c-71 -26 -106 -74 -106 -146 0 -24 13 -115 30 -203 92
-489 85 -463 133 -499 62 -46 191 -15 229 55 17 29 19 48 14 121 -5 92 -99
587 -119 627 -13 27 -79 61 -117 60 -14 0 -43 -7 -64 -15z"/>
<path d="M17607 4734 c-64 -20 -107 -77 -107 -143 0 -25 18 -140 40 -256 22
-115 47 -248 56 -294 26 -141 56 -176 153 -175 69 1 112 23 146 71 34 52 33
81 -20 344 -25 123 -50 257 -55 297 -12 94 -31 129 -83 153 -50 22 -66 22
-130 3z"/>
<path d="M7229 4717 c-45 -30 -63 -70 -63 -139 -1 -70 20 -103 86 -136 53 -27
98 -23 151 12 91 61 89 221 -4 268 -50 26 -128 24 -170 -5z"/>
<path d="M3565 4661 c-73 -18 -115 -71 -115 -146 0 -43 20 -94 46 -116 59 -51
164 -48 222 5 33 31 36 39 39 97 3 51 0 70 -16 96 -32 52 -110 80 -176 64z"/>
<path d="M19748 4661 c-77 -25 -118 -75 -118 -144 0 -112 86 -174 205 -148 72
16 98 51 103 136 2 47 -1 67 -17 92 -33 52 -114 82 -173 64z"/>
<path d="M5123 4601 c-17 -11 -43 -40 -57 -64 -37 -63 -34 -110 11 -197 31
-59 35 -75 27 -98 -10 -26 -13 -27 -74 -25 -49 1 -77 9 -124 33 -253 131 -294
145 -402 137 -146 -11 -272 -97 -332 -225 -67 -143 -25 -352 91 -461 57 -52
168 -36 217 31 50 68 51 141 4 197 -37 45 -41 82 -11 117 40 46 77 38 252 -49
194 -97 240 -111 340 -111 310 3 455 324 280 619 -50 85 -88 115 -145 115 -27
0 -58 -8 -77 -19z"/>
<path d="M9115 4412 c-61 -39 -70 -57 -70 -142 0 -70 3 -81 25 -105 41 -44 77
-58 138 -53 49 4 60 10 92 45 50 53 59 103 30 171 -31 72 -55 91 -126 98 -48
4 -65 2 -89 -14z"/>
<path d="M14897 4406 c-71 -26 -107 -76 -107 -149 0 -29 8 -56 23 -78 24 -37
97 -79 137 -79 41 0 113 42 138 80 45 66 18 170 -54 212 -43 24 -94 30 -137
14z"/>
<path d="M8260 4334 c-50 -22 -146 -119 -185 -189 -57 -102 -78 -179 -72 -265
7 -105 38 -171 115 -242 64 -59 103 -75 292 -124 142 -36 200 -86 200 -174 0
-62 -25 -98 -95 -135 -97 -51 -128 -130 -85 -214 22 -44 70 -88 106 -97 40
-10 91 3 150 38 31 18 64 38 74 43 26 15 109 114 131 157 26 51 42 168 36 260
-7 99 -43 181 -117 261 -72 78 -202 144 -335 168 -180 33 -201 105 -66 231 78
74 88 148 30 229 -23 32 -89 69 -124 68 -11 0 -36 -7 -55 -15z"/>
<path d="M12823 4320 c-45 -14 -76 -62 -81 -127 -6 -69 9 -103 60 -136 78 -51
197 -27 232 47 32 68 9 170 -46 205 -27 17 -124 23 -165 11z"/>
<path d="M2695 3925 c-73 -26 -114 -104 -94 -180 12 -44 49 -83 150 -160 94
-71 249 -206 364 -316 55 -53 110 -101 122 -108 33 -17 100 -13 143 9 69 35
102 140 66 208 -24 45 -256 262 -421 395 -33 26 -87 69 -120 95 -89 72 -134
84 -210 57z"/>
<path d="M18885 3927 c-74 -29 -105 -71 -105 -141 0 -71 22 -101 134 -185 52
-40 98 -76 101 -82 4 -5 30 -27 58 -48 29 -21 116 -100 194 -175 78 -74 154
-138 168 -142 42 -10 111 1 143 24 56 41 80 139 48 200 -32 60 -294 298 -546
495 -83 66 -131 79 -195 54z"/>
<path d="M6561 3863 c-8 -3 -56 -33 -107 -67 -164 -107 -206 -132 -345 -205
-123 -64 -137 -74 -154 -110 -21 -47 -17 -102 12 -159 48 -91 163 -90 323 3
41 24 87 48 101 54 15 5 57 29 93 53 36 24 104 68 151 98 68 43 89 63 106 98
37 75 17 152 -54 206 -33 25 -100 41 -126 29z"/>
<path d="M13794 3561 c-64 -29 -89 -72 -89 -153 0 -65 2 -69 37 -104 27 -28
48 -39 85 -44 101 -16 175 42 186 145 13 117 -111 205 -219 156z"/>
<path d="M10410 3535 c-30 -7 -77 -18 -105 -23 -27 -6 -106 -25 -175 -42 -69
-17 -154 -37 -190 -44 -75 -15 -96 -24 -130 -61 -21 -22 -25 -37 -25 -84 0
-66 25 -112 83 -152 45 -31 88 -30 227 4 134 32 185 43 250 56 107 20 251 61
275 79 82 61 59 212 -40 262 -44 22 -88 23 -170 5z"/>
<path d="M460 3437 c-141 -74 -85 -277 77 -277 110 0 163 49 163 151 0 67 -22
102 -84 130 -55 25 -104 24 -156 -4z"/>
<path d="M16655 3441 c-67 -31 -80 -53 -80 -136 0 -59 4 -77 20 -95 28 -32 76
-50 130 -50 101 0 155 52 155 148 0 71 -22 106 -81 132 -59 25 -92 25 -144 1z"/>
<path d="M12355 3396 c-42 -20 -83 -62 -92 -94 -13 -43 -8 -268 12 -612 15
-248 21 -279 66 -311 58 -41 144 -41 206 -1 32 20 62 73 65 113 2 34 -9 200
-17 274 -7 60 -13 170 -21 360 -7 191 -13 212 -74 250 -50 31 -106 39 -145 21z"/>
<path d="M15678 3245 c-4 -3 -171 -14 -323 -20 -204 -9 -225 -12 -266 -39 -72
-48 -78 -158 -13 -234 59 -70 57 -69 484 -37 30 2 96 7 145 10 118 8 155 19
189 54 24 25 29 39 31 86 4 115 -54 174 -175 179 -38 2 -71 2 -72 1z"/>
<path d="M7128 3150 c-48 -15 -86 -49 -103 -94 -16 -41 -16 -48 10 -177 14
-74 30 -159 36 -189 15 -81 24 -122 59 -260 17 -69 37 -152 45 -185 11 -48 21
-67 51 -92 39 -34 88 -49 128 -39 39 10 110 69 129 108 17 35 17 38 -8 150
-15 62 -32 133 -40 158 -7 25 -18 72 -23 105 -6 33 -24 121 -41 195 -17 74
-37 163 -45 197 -7 35 -19 70 -27 79 -32 38 -118 61 -171 44z"/>
<path d="M1315 2994 c-171 -55 -284 -179 -335 -368 -29 -110 -64 -184 -94
-197 -41 -19 -77 -1 -151 76 -81 85 -117 99 -188 71 -115 -45 -149 -137 -84
-232 101 -151 310 -259 458 -239 80 11 181 67 230 128 50 62 59 84 94 208 54
192 108 254 213 246 61 -4 107 -39 118 -91 16 -72 73 -116 151 -116 58 0 104
26 141 80 31 46 26 112 -13 195 -43 91 -119 164 -218 211 -75 35 -90 39 -177
41 -66 2 -110 -2 -145 -13z"/>
<path d="M17504 2996 c-111 -35 -226 -122 -281 -214 -12 -20 -40 -93 -62 -162
-44 -137 -75 -193 -108 -198 -37 -5 -94 29 -130 79 -35 50 -99 89 -144 89 -36
-1 -100 -33 -134 -69 -25 -27 -30 -40 -30 -84 0 -42 6 -61 33 -99 80 -115 217
-204 354 -229 125 -23 260 31 338 135 53 71 67 103 84 187 18 87 78 211 113
234 38 25 114 30 156 10 28 -13 43 -31 66 -79 41 -87 68 -109 139 -114 48 -3
63 0 92 20 49 34 80 83 80 130 0 57 -53 175 -103 229 -88 95 -212 149 -342
148 -44 0 -98 -6 -121 -13z"/>
<path d="M4171 2791 c-37 -35 -51 -69 -51 -124 0 -120 150 -187 255 -116 43
29 59 73 53 147 -4 48 -10 60 -41 89 -35 31 -41 33 -111 33 -68 0 -76 -2 -105
-29z"/>
<path d="M11174 2582 c-102 -64 -116 -177 -33 -264 34 -37 38 -38 102 -38 57
0 70 4 98 27 112 95 57 277 -88 290 -36 3 -56 -1 -79 -15z"/>
<path d="M2775 2522 c-65 -23 -95 -70 -95 -149 0 -58 2 -65 35 -97 63 -63 150
-69 224 -16 72 53 76 162 8 228 -28 27 -42 33 -92 37 -33 2 -69 1 -80 -3z"/>
<path d="M18960 2523 c-64 -12 -108 -94 -95 -179 23 -155 272 -160 306 -6 28
128 -66 211 -211 185z"/>
<path d="M5485 2410 c-18 -7 -368 -363 -468 -476 -35 -39 -37 -46 -37 -108 0
-63 2 -69 38 -106 43 -45 94 -61 158 -48 30 6 53 22 90 61 27 28 128 134 224
235 96 100 182 195 192 210 20 31 24 102 7 135 -17 32 -60 77 -91 93 -30 15
-81 17 -113 4z"/>
<path d="M9712 2229 c-38 -8 -83 -47 -115 -99 -18 -30 -57 -83 -176 -239 -14
-19 -81 -96 -148 -173 -68 -76 -126 -150 -129 -163 -14 -56 21 -136 77 -177
38 -28 102 -34 148 -14 35 16 163 152 251 266 19 25 40 49 46 55 5 5 23 28 39
50 16 22 38 49 48 60 15 17 69 93 149 214 36 54 7 163 -54 203 -29 19 -93 27
-136 17z"/>
<path d="M13375 2163 c-66 -10 -124 -86 -125 -163 0 -49 38 -111 80 -132 50
-25 119 -23 161 5 51 34 71 80 66 150 -6 71 -25 101 -79 127 -42 20 -48 21
-103 13z"/>
<path d="M8310 2094 c-123 -54 -147 -188 -51 -279 29 -27 38 -30 101 -30 59 0
72 3 95 25 33 30 46 54 56 100 27 116 -97 230 -201 184z"/>
<path d="M14734 2051 c-17 -10 -80 -68 -140 -127 -110 -109 -297 -275 -344
-305 -14 -9 -51 -41 -82 -72 -57 -54 -58 -57 -58 -110 0 -43 5 -62 28 -93 42
-58 55 -65 121 -71 69 -7 74 -4 188 91 41 34 93 76 116 95 68 53 302 277 352
336 56 65 67 112 41 178 -33 86 -145 125 -222 78z"/>
<path d="M3628 1960 c-88 -16 -180 -52 -217 -86 -35 -31 -36 -35 -35 -101 0
-76 14 -104 70 -142 51 -35 94 -37 159 -7 95 43 177 32 240 -34 56 -59 52
-184 -8 -256 -115 -138 -159 -265 -137 -390 22 -129 86 -229 187 -294 107 -69
131 -75 283 -75 128 1 138 2 192 29 31 16 71 43 88 61 61 63 47 164 -30 229
-26 22 -41 26 -91 26 -40 0 -69 -6 -86 -17 -71 -47 -215 -3 -225 68 -8 52 7
96 49 145 95 112 132 198 140 319 15 222 -128 433 -335 499 -92 29 -178 38
-244 26z"/>
<path d="M19808 1960 c-87 -15 -177 -51 -208 -81 -66 -67 -62 -168 11 -233 52
-48 98 -55 163 -26 66 30 141 36 189 16 l37 -15 0 164 c0 90 -3 166 -7 168
-17 11 -141 15 -185 7z"/>
<path d="M6105 1943 c-101 -23 -125 -53 -125 -158 0 -79 11 -101 64 -134 67
-42 169 -19 213 48 38 56 39 93 7 159 -38 75 -87 101 -159 85z"/>
<path d="M64 1581 c-52 -32 -64 -57 -64 -137 0 -71 1 -72 39 -107 65 -59 151
-59 220 -1 79 66 61 203 -33 248 -47 22 -123 21 -162 -3z"/>
<path d="M16238 1575 c-50 -34 -58 -52 -58 -133 0 -68 1 -70 39 -105 42 -38
107 -56 153 -42 36 11 86 53 103 85 33 64 9 153 -54 196 -51 34 -132 34 -183
-1z"/>
<path d="M12665 1543 c-37 -10 -75 -44 -96 -85 -19 -37 -20 -47 -10 -92 36
-157 9 -241 -88 -282 -62 -26 -112 -18 -180 27 -34 22 -68 50 -76 62 -21 31
-91 82 -155 114 -73 35 -220 44 -299 18 -128 -42 -242 -157 -289 -288 -46
-131 -30 -337 32 -405 73 -81 204 -64 262 33 26 45 27 49 15 103 -23 108 -23
120 -6 166 20 52 41 74 81 85 50 14 102 -13 181 -93 111 -112 206 -152 363
-150 148 1 218 29 337 131 71 62 133 170 153 270 26 125 -7 298 -69 357 -22
21 -40 28 -82 31 -30 2 -63 1 -74 -2z"/>
<path d="M2359 1516 c-9 -9 -400 -86 -482 -95 -182 -21 -219 -31 -259 -70 -43
-43 -56 -103 -38 -170 9 -34 20 -48 58 -72 44 -29 51 -30 122 -26 64 5 288 43
650 112 112 21 165 46 190 87 38 63 17 155 -50 212 -28 23 -40 26 -109 26 -43
0 -80 -2 -82 -4z"/>
<path d="M18430 1490 c-121 -27 -258 -52 -480 -85 -58 -9 -115 -23 -128 -31
-31 -20 -59 -69 -67 -116 -9 -50 26 -124 74 -155 48 -33 93 -30 378 23 136 25
277 50 312 55 83 12 177 37 213 55 89 46 88 182 -2 258 -28 23 -40 26 -103 25
-40 0 -128 -14 -197 -29z"/>
<path d="M10442 1400 c-56 -35 -74 -74 -68 -154 5 -74 23 -103 78 -132 39 -20
117 -18 152 6 40 26 76 87 76 130 -1 48 -31 110 -69 143 -41 34 -118 38 -169
7z"/>
<path d="M7744 1380 c-39 -9 -101 -56 -120 -92 -20 -38 -17 -85 7 -138 60
-130 31 -243 -73 -284 -74 -30 -116 -22 -209 39 -46 31 -112 69 -147 86 -57
27 -73 31 -160 31 -117 1 -171 -17 -261 -86 -69 -53 -106 -103 -147 -196 -27
-60 -29 -75 -29 -185 0 -119 0 -121 39 -201 24 -51 50 -90 69 -105 74 -55 191
-24 235 61 28 57 28 87 -3 160 -45 106 -25 194 51 226 33 14 41 14 85 -2 27
-10 73 -37 101 -61 29 -24 85 -55 123 -71 61 -24 83 -27 180 -27 97 0 118 4
180 29 136 55 225 146 284 289 29 70 32 88 32 180 0 111 -4 130 -49 227 -46
101 -107 139 -188 120z"/>
<path d="M19964 1260 c-66 -96 -78 -128 -82 -235 -5 -118 12 -179 74 -265 l39
-54 3 146 c1 81 1 216 0 300 l-3 153 -31 -45z"/>
<path d="M15352 1120 c-48 -30 -72 -75 -72 -140 0 -99 56 -154 157 -154 57 0
90 17 127 68 30 39 30 143 0 182 -47 63 -146 84 -212 44z"/>
<path d="M925 831 c-46 -21 -85 -81 -85 -130 0 -36 12 -62 84 -181 28 -46 92
-165 141 -265 102 -205 121 -225 207 -225 55 0 91 16 128 55 22 23 24 35 24
98 -1 69 -4 78 -82 235 -45 89 -90 175 -100 190 -11 15 -22 36 -26 47 -14 45
-103 161 -136 177 -45 23 -104 22 -155 -1z"/>
<path d="M17120 839 c-54 -22 -100 -85 -100 -136 0 -26 23 -81 52 -128 78
-125 101 -169 234 -440 37 -77 78 -105 149 -105 40 0 61 6 91 26 46 31 51 38
64 86 15 55 1 96 -104 308 -105 211 -194 353 -240 381 -34 21 -104 24 -146 8z"/>
<path d="M9930 694 c-111 -36 -229 -145 -230 -212 0 -61 72 -140 143 -157 39
-10 89 2 130 29 56 39 92 42 122 12 14 -14 25 -36 25 -49 0 -35 -45 -157 -85
-230 -19 -35 -35 -69 -35 -75 0 -9 47 -12 170 -12 l170 0 35 70 c56 112 79
258 54 339 -36 116 -89 187 -179 241 -36 21 -78 44 -93 49 -40 15 -174 12
-227 -5z"/>
<path d="M13455 681 c-47 -29 -72 -63 -79 -106 -10 -59 8 -123 43 -158 25 -26
40 -31 89 -35 73 -5 112 13 147 68 29 47 34 124 10 171 -36 69 -145 101 -210
60z"/>
<path d="M8645 657 c-43 -20 -62 -45 -76 -100 -16 -59 0 -132 36 -164 68 -60
186 -49 234 22 49 72 35 171 -30 223 -36 29 -120 39 -164 19z"/>
<path d="M14700 511 c-39 -12 -91 -40 -142 -78 -76 -55 -83 -126 -22 -210 48
-63 124 -79 209 -43 59 25 86 25 113 0 29 -27 28 -74 -2 -133 l-23 -47 173 0
c201 0 194 -4 198 108 6 173 -97 329 -261 397 -38 16 -197 20 -243 6z"/>
<path d="M4895 365 c-22 -8 -55 -30 -72 -49 -29 -31 -33 -43 -33 -88 0 -102
54 -153 161 -153 77 0 112 18 142 76 26 48 19 130 -14 165 -50 53 -120 72
-184 49z"/>
<path d="M10955 323 c-62 -16 -107 -106 -95 -188 6 -41 15 -56 50 -87 38 -34
49 -38 95 -38 87 0 152 61 161 150 4 47 -22 111 -57 139 -25 19 -117 34 -154
24z"/>
<path d="M2824 281 c-100 -45 -115 -191 -28 -260 38 -30 160 -30 198 0 37 29
56 70 56 121 0 60 -28 108 -80 135 -52 28 -91 29 -146 4z"/>
<path d="M19003 279 c-55 -27 -83 -72 -83 -133 0 -54 18 -96 56 -125 21 -17
41 -21 96 -21 118 0 164 48 156 161 -5 67 -22 92 -83 120 -52 24 -91 24 -142
-2z"/>
</g>
</svg>
